<svg width="36" height="36" viewBox="0 0 36 36" fill="none" xmlns="http://www.w3.org/2000/svg">
<path d="M3.6 36C2.61 36 1.7622 35.6472 1.0566 34.9416C0.350999 34.236 -0.00120028 33.3888 -2.81832e-07 32.4V10.8C-2.81832e-07 9.81 0.3528 8.9622 1.0584 8.2566C1.764 7.551 2.6112 7.1988 3.6 7.2H9.27L12.6 3.6H23.4V7.2H14.175L10.89 10.8H3.6V32.4H32.4V12.6H36V32.4C36 33.39 35.6472 34.2378 34.9416 34.9434C34.236 35.649 33.3888 36.0012 32.4 36H3.6ZM33.57 10.8C33.57 8.46 32.76 6.48 31.14 4.86C29.52 3.24 27.54 2.43 25.2 2.43V0C28.2 0 30.75 1.05 32.85 3.15C34.95 5.25 36 7.8 36 10.8H33.57ZM28.8 10.8C28.8 9.81 28.4472 8.9622 27.7416 8.2566C27.036 7.551 26.1888 7.1988 25.2 7.2V4.77C26.85 4.77 28.2522 5.355 29.4066 6.525C30.561 7.695 31.1688 9.12 31.23 10.8H28.8ZM18 29.7C20.25 29.7 22.1628 28.9122 23.7384 27.3366C25.314 25.761 26.1012 23.8488 26.1 21.6C26.1 19.35 25.3122 17.4372 23.7366 15.8616C22.161 14.286 20.2488 13.4988 18 13.5C15.75 13.5 13.8372 14.2878 12.2616 15.8634C10.686 17.439 9.8988 19.3512 9.9 21.6C9.9 23.85 10.6878 25.7628 12.2634 27.3384C13.839 28.914 15.7512 29.7012 18 29.7ZM18 26.1C16.74 26.1 15.675 25.665 14.805 24.795C13.935 23.925 13.5 22.86 13.5 21.6C13.5 20.34 13.935 19.275 14.805 18.405C15.675 17.535 16.74 17.1 18 17.1C19.26 17.1 20.325 17.535 21.195 18.405C22.065 19.275 22.5 20.34 22.5 21.6C22.5 22.86 22.065 23.925 21.195 24.795C20.325 25.665 19.26 26.1 18 26.1Z" fill="url(#paint0_linear_3109_1104)"/>
<defs>
<linearGradient id="paint0_linear_3109_1104" x1="36" y1="18" x2="-3.04558e-06" y2="18" gradientUnits="userSpaceOnUse">
<stop stop-color="#002538"/>
<stop offset="1" stop-color="#0B5A83"/>
</linearGradient>
</defs>
</svg>
