<svg width="48" height="48" viewBox="0 0 48 48" fill="none" xmlns="http://www.w3.org/2000/svg">
<path d="M9.6 42C8.61 42 7.7622 41.6472 7.0566 40.9416C6.351 40.236 5.9988 39.3888 6 38.4V16.8C6 15.81 6.3528 14.9622 7.0584 14.2566C7.764 13.551 8.6112 13.1988 9.6 13.2H15.27L18.6 9.6H29.4V13.2H20.175L16.89 16.8H9.6V38.4H38.4V18.6H42V38.4C42 39.39 41.6472 40.2378 40.9416 40.9434C40.236 41.649 39.3888 42.0012 38.4 42H9.6ZM39.57 16.8C39.57 14.46 38.76 12.48 37.14 10.86C35.52 9.24 33.54 8.43 31.2 8.43V6C34.2 6 36.75 7.05 38.85 9.15C40.95 11.25 42 13.8 42 16.8H39.57ZM34.8 16.8C34.8 15.81 34.4472 14.9622 33.7416 14.2566C33.036 13.551 32.1888 13.1988 31.2 13.2V10.77C32.85 10.77 34.2522 11.355 35.4066 12.525C36.561 13.695 37.1688 15.12 37.23 16.8H34.8ZM24 35.7C26.25 35.7 28.1628 34.9122 29.7384 33.3366C31.314 31.761 32.1012 29.8488 32.1 27.6C32.1 25.35 31.3122 23.4372 29.7366 21.8616C28.161 20.286 26.2488 19.4988 24 19.5C21.75 19.5 19.8372 20.2878 18.2616 21.8634C16.686 23.439 15.8988 25.3512 15.9 27.6C15.9 29.85 16.6878 31.7628 18.2634 33.3384C19.839 34.914 21.7512 35.7012 24 35.7ZM24 32.1C22.74 32.1 21.675 31.665 20.805 30.795C19.935 29.925 19.5 28.86 19.5 27.6C19.5 26.34 19.935 25.275 20.805 24.405C21.675 23.535 22.74 23.1 24 23.1C25.26 23.1 26.325 23.535 27.195 24.405C28.065 25.275 28.5 26.34 28.5 27.6C28.5 28.86 28.065 29.925 27.195 30.795C26.325 31.665 25.26 32.1 24 32.1Z" fill="url(#paint0_linear_3109_1103)"/>
<defs>
<linearGradient id="paint0_linear_3109_1103" x1="42" y1="24" x2="6" y2="24" gradientUnits="userSpaceOnUse">
<stop stop-color="#002538"/>
<stop offset="1" stop-color="#0B5A83"/>
</linearGradient>
</defs>
</svg>
