<svg width="43" height="42" viewBox="0 0 43 42" fill="none" xmlns="http://www.w3.org/2000/svg">
<path d="M35.3182 29.4545H13.0455V7.18182H35.3182M35.3182 4H13.0455C12.2016 4 11.3923 4.33523 10.7956 4.93193C10.1989 5.52864 9.86364 6.33795 9.86364 7.18182V29.4545C9.86364 30.2984 10.1989 31.1077 10.7956 31.7044C11.3923 32.3011 12.2016 32.6364 13.0455 32.6364H35.3182C36.1621 32.6364 36.9714 32.3011 37.5681 31.7044C38.1648 31.1077 38.5 30.2984 38.5 29.4545V7.18182C38.5 6.33795 38.1648 5.52864 37.5681 4.93193C36.9714 4.33523 36.1621 4 35.3182 4ZM6.68182 10.3636H3.5V35.8182C3.5 36.6621 3.83523 37.4714 4.43193 38.0681C5.02864 38.6648 5.83795 39 6.68182 39H32.1364V35.8182H6.68182M27.3 18.7795L22.925 24.4114L19.8068 20.6568L15.4318 26.2727H32.9318L27.3 18.7795Z" fill="#4D4D4D"/>
</svg>
