<svg width="21" height="23" viewBox="0 0 21 23" fill="none" xmlns="http://www.w3.org/2000/svg">
<path d="M13.7367 17.5333C15.8614 17.2752 17.9489 16.7606 19.956 16.0003C18.2562 14.0679 17.317 11.5561 17.3207 8.95286V8.13366V8.07515C17.3207 6.21288 16.5999 4.42689 15.3168 3.11007C14.0337 1.79325 12.2934 1.05347 10.4788 1.05347C8.66422 1.05347 6.92395 1.79325 5.64084 3.11007C4.35772 4.42689 3.63688 6.21288 3.63688 8.07515V8.95286C3.64032 11.5563 2.70066 14.0681 1.00046 16.0003C2.97663 16.7493 5.06 17.27 7.22091 17.5333M13.7367 17.5333C11.5724 17.7968 9.38526 17.7968 7.22091 17.5333M13.7367 17.5333C13.901 18.0598 13.9419 18.6187 13.856 19.1644C13.77 19.7101 13.5598 20.2273 13.2422 20.6739C12.9247 21.1204 12.5089 21.4837 12.0287 21.7342C11.5485 21.9847 11.0175 22.1152 10.4788 22.1152C9.94015 22.1152 9.4091 21.9847 8.92889 21.7342C8.44869 21.4837 8.0329 21.1204 7.71538 20.6739C7.39786 20.2273 7.18757 19.7101 7.10165 19.1644C7.01572 18.6187 7.05659 18.0598 7.22091 17.5333" stroke="white" stroke-width="1.5" stroke-linecap="round" stroke-linejoin="round"/>
</svg>
